# xmcd
#
# Track frame offsets:
# 150
# 27188
# 52031
# 75798
# 93715
# 124872
# 131472
# 156686
# 174741
# 179720
# 185932
#
# Disc length: 2823 seconds
#
# Revision: 0
# Processed by: cddbd v1.4PL0 Copyright (c) Steve Scherf et al.
# Submitted via: MacMP3 Pro 5.0 (http://mp3.act2.co.jp/)
#
DISCID=9e0b050b
DTITLE=Tomo Fujita and Blue Funk - Put On Your Funk Face
DYEAR=1900
DGENRE=
TTITLE0=Crossing
TTITLE1=Burbank Street
TTITLE2=Song For Samantha
TTITLE3=Meltdown
TTITLE4=Just Funk
TTITLE5=Dreaming Of You
TTITLE6=Orange Juice and Water
TTITLE7=I Like Your Smile
TTITLE8=Cat Walk
TTITLE9=I Have No Clue
TTITLE10=Don't Walk Me
EXTD=
EXTT0=
EXTT1=
EXTT2=
EXTT3=
EXTT4=
EXTT5=
EXTT6=
EXTT7=
EXTT8=
EXTT9=
EXTT10=
PLAYORDER=
